<svg width="300" height="2" viewBox="0 0 300 2" fill="none" xmlns="http://www.w3.org/2000/svg">
<path d="M21.6391 1.02601C21.6431 0.821416 21.6203 0.642142 21.5746 0.483529C21.5235 0.483529 21.4718 0.483529 21.42 0.483529L21.6391 1.02601Z" fill="#FFC600"/>
<path d="M163.773 -0.000310118H113.956C114.408 0.144308 114.885 0.3689 115.407 0.660136C113.83 1.2766 112.636 2.13165 111.367 0.57883C111.642 0.304255 111.921 0.120316 112.206 -0.000976562H107.365C107.231 0.450206 107.059 0.927381 106.905 1.44188C106.527 0.928714 106.299 0.453539 106.17 -0.000976562H105.405C105.441 0.617484 105.235 1.27327 104.996 1.99836H107.283C107.448 1.83908 107.603 1.65914 107.728 1.41988C107.856 1.61915 107.963 1.81042 108.055 1.99836H109.213C109.207 1.99103 109.201 1.98569 109.194 1.97836C110.352 0.824748 111.558 1.13798 113.126 1.99836H140.306C140.679 1.53584 141.518 1.40322 142.694 1.45254C142.718 1.65314 142.716 1.82908 142.708 1.99836H164.533C164.499 1.41588 164.292 0.764768 163.773 -0.000310118Z" fill="#FFC600"/>
<path d="M198.1 -0.000310118H168.31C168.31 0.672132 168.31 1.33858 168.31 1.99902H196.02C196.648 1.31858 197.37 0.690126 198.1 -0.000310118Z" fill="#FFC600"/>
<path d="M166.507 -0.000310118H166.242C166.242 0.673465 166.242 1.33991 166.242 1.99902H166.393C166.588 1.40056 166.703 0.759437 166.507 -0.000310118Z" fill="#FFC600"/>
<path d="M239.535 1.99902H243.284C243.565 1.47453 243.85 0.947374 244.14 0.41955C244.573 0.64814 244.771 0.937377 244.861 1.25394C245.083 0.837411 245.309 0.41955 245.536 -0.000310118H240.269C240.198 0.281596 240.111 0.561503 239.999 0.841409C238.981 1.05001 238.227 1.25994 237.446 0.058337C237.453 0.0390101 237.459 0.0190168 237.466 -0.000310118H205.43C205.43 0.649473 205.43 1.31192 205.43 1.99902H233.255C233.734 1.81642 234.148 1.78043 234.527 1.82441C234.459 1.56517 234.391 1.30525 234.319 1.04801C236.951 -0.648761 237.949 1.39589 239.535 1.99902Z" fill="#FFC600"/>
<path d="M300 -0.000310118H272.264C271.79 0.514852 271.114 0.876731 270.439 1.24328C270.197 0.840743 270.008 0.43821 269.973 -0.000310118H246.822C246.932 0.613485 246.698 1.31259 246.906 1.88706C246.92 1.92505 246.923 1.9617 246.934 1.99902H300V-0.000310118Z" fill="#FFC600"/>
<path d="M203.43 -0.000310118C203.43 0.652806 203.43 1.31525 203.43 1.99902H205.043C204.927 1.26394 204.81 0.607487 204.721 -0.000310118H203.43Z" fill="#FFC600"/>
<path d="M48.6028 -0.000310118H47.3551C47.6339 0.67813 47.9081 1.34524 48.1768 1.99902H48.8856C48.5551 1.35057 48.4529 0.688794 48.6028 -0.000310118Z" fill="#FFC600"/>
<path d="M53.3858 1.2846C53.314 0.847407 53.3435 0.420883 53.4241 -0.000310118H50.2139C50.4887 0.6688 50.7628 1.33591 51.0356 1.99902H53.4779C53.4497 1.76044 53.4248 1.52118 53.3858 1.2846Z" fill="#FFC600"/>
<path d="M75.1176 1.99902H85.0211C85.095 1.32658 85.1958 0.65947 85.3288 -0.000310118H73.7154C73.9486 0.0376772 74.1844 0.107654 74.4209 0.185628C74.9349 0.803422 75.1311 1.40589 75.1176 1.99902Z" fill="#FFC600"/>
<path d="M70.1081 1.82508C70.692 1.23395 71.3148 1.31925 71.9471 1.51052C72.0163 1.13131 72.1473 0.773432 72.3515 0.425548C72.5934 0.180296 72.8427 0.0530054 73.096 -0.000310118H58.9859C59.0101 0.702789 59.0363 1.37057 59.0645 1.99902H70.0194C70.0497 1.94104 70.0739 1.8824 70.1081 1.82508Z" fill="#FFC600"/>
<path d="M103.865 -0.000310118H89.5784C89.4884 0.524848 89.3896 1.04867 89.2841 1.57117C89.4259 1.55251 89.569 1.53651 89.7108 1.51852C89.919 1.67313 90.0763 1.83375 90.1992 1.99902H104.215C103.878 1.28726 103.809 0.637477 103.865 -0.000310118Z" fill="#FFC600"/>
<path d="M202.813 1.99902C202.694 1.27193 202.603 0.617484 202.586 -0.000310118H201.166C200.781 0.861403 200.154 1.32858 198.878 1.87706C198.851 1.91638 198.829 1.96104 198.799 1.99902H202.813Z" fill="#FFC600"/>
<path d="M46.9412 -0.000310118H24.0155C24.0934 0.295591 24.2023 0.484195 24.3407 0.484195C23.355 0.484195 22.4628 0.483529 21.5746 0.483529C21.6203 0.642142 21.6431 0.821416 21.6391 1.02601L21.42 0.483529C21.4718 0.483529 21.5235 0.483529 21.5746 0.483529C21.5168 0.284928 21.4194 0.125648 21.2863 -0.000310118H0V1.99902H46.2465C46.2525 1.3579 46.487 0.694125 46.9412 -0.000310118Z" fill="#FFC600"/>
</svg>
